<svg width="450" height="450" viewBox="0 0 450 450" fill="none" xmlns="http://www.w3.org/2000/svg">
<circle cx="225" cy="225" r="223.5" fill="#B6D8F2" stroke="white" stroke-width="3"/>
<path d="M169.5 153C169.5 164.467 167.725 172.484 164.654 178.102C161.612 183.667 157.235 186.995 151.743 188.987C146.194 191 139.503 191.649 131.887 191.774C127.632 191.844 123.216 191.753 118.599 191.657C114.871 191.58 111.012 191.5 107 191.5C102.988 191.5 99.1287 191.58 95.4015 191.657C90.7839 191.753 86.3683 191.844 82.1129 191.774C74.4967 191.649 67.8058 191 62.2566 188.987C56.7652 186.995 52.3878 183.667 49.3456 178.102C46.2745 172.484 44.5 164.467 44.5 153C44.5 130.101 51.5739 109.173 62.9454 94.0027C74.3177 78.8311 89.91 69.5 107 69.5C124.09 69.5 139.682 78.8311 151.055 94.0027C162.426 109.173 169.5 130.101 169.5 153Z" fill="#F7F6CF" stroke="white" stroke-width="3"/>
<rect x="96.3732" y="194.5" width="23" height="31" fill="#F4CFDF" stroke="white" stroke-width="3"/>
<path d="M55.3732 250C55.3732 228.737 72.6102 211.5 93.8732 211.5H120.873C142.136 211.5 159.373 228.737 159.373 250V313C159.373 334.263 142.136 351.5 120.873 351.5H93.8732C72.6102 351.5 55.3732 334.263 55.3732 313V250Z" fill="#5784BA" stroke="white" stroke-width="3"/>
<path d="M151.373 135.168C151.373 151.396 146.424 166.03 138.494 176.574C130.565 187.117 119.723 193.5 107.873 193.5C96.0229 193.5 85.1817 187.117 77.2522 176.574C69.3221 166.03 64.3732 151.396 64.3732 135.168C64.3732 127.045 65.6133 121.089 67.7571 116.704C69.8845 112.351 72.9384 109.469 76.7359 107.528C80.5696 105.569 85.2068 104.548 90.5035 104.028C95.8008 103.509 101.644 103.5 107.873 103.5C114.102 103.5 119.945 103.509 125.243 104.028C130.54 104.548 135.177 105.569 139.01 107.528C142.808 109.469 145.862 112.351 147.989 116.704C150.133 121.089 151.373 127.045 151.373 135.168Z" fill="#F4CFDF" stroke="white" stroke-width="3"/>
<rect x="57.3278" y="211.716" width="42" height="150" rx="21" transform="rotate(6 57.3278 211.716)" fill="#5784BA" stroke="white" stroke-width="3"/>
<rect x="114.522" y="216.039" width="42" height="150" rx="21" transform="rotate(-6 114.522 216.039)" fill="#5784BA" stroke="white" stroke-width="3"/>
<path d="M406.5 153C406.5 164.467 404.725 172.484 401.654 178.102C398.612 183.667 394.235 186.995 388.743 188.987C383.194 191 376.503 191.649 368.887 191.774C364.632 191.844 360.216 191.753 355.599 191.657C351.871 191.58 348.012 191.5 344 191.5C339.988 191.5 336.129 191.58 332.401 191.657C327.784 191.753 323.368 191.844 319.113 191.774C311.497 191.649 304.806 191 299.257 188.987C293.765 186.995 289.388 183.667 286.346 178.102C283.275 172.484 281.5 164.467 281.5 153C281.5 130.101 288.574 109.173 299.945 94.0027C311.318 78.8311 326.91 69.5 344 69.5C361.09 69.5 376.682 78.8311 388.055 94.0027C399.426 109.173 406.5 130.101 406.5 153Z" fill="#F7F6CF" stroke="white" stroke-width="3"/>
<rect x="333.373" y="194.5" width="23" height="31" fill="#F4CFDF" stroke="white" stroke-width="3"/>
<path d="M292.373 250C292.373 228.737 309.61 211.5 330.873 211.5H357.873C379.136 211.5 396.373 228.737 396.373 250V313C396.373 334.263 379.136 351.5 357.873 351.5H330.873C309.61 351.5 292.373 334.263 292.373 313V250Z" fill="#5784BA" stroke="white" stroke-width="3"/>
<path d="M388.373 135.168C388.373 151.396 383.424 166.03 375.494 176.574C367.565 187.117 356.723 193.5 344.873 193.5C333.023 193.5 322.182 187.117 314.252 176.574C306.322 166.03 301.373 151.396 301.373 135.168C301.373 127.045 302.613 121.089 304.757 116.704C306.884 112.351 309.938 109.469 313.736 107.528C317.57 105.569 322.207 104.548 327.504 104.028C332.801 103.509 338.644 103.5 344.873 103.5C351.102 103.5 356.945 103.509 362.243 104.028C367.54 104.548 372.177 105.569 376.01 107.528C379.808 109.469 382.862 112.351 384.989 116.704C387.133 121.089 388.373 127.045 388.373 135.168Z" fill="#F4CFDF" stroke="white" stroke-width="3"/>
<rect x="294.328" y="211.716" width="42" height="150" rx="21" transform="rotate(6 294.328 211.716)" fill="#5784BA" stroke="white" stroke-width="3"/>
<rect x="351.522" y="216.039" width="42" height="150" rx="21" transform="rotate(-6 351.522 216.039)" fill="#5784BA" stroke="white" stroke-width="3"/>
<path d="M304.5 255C304.5 258.805 303.675 261.161 302.413 262.67C301.156 264.173 299.273 265.064 296.658 265.529C294.024 265.998 290.825 266.004 287.118 265.878C286.046 265.842 284.932 265.794 283.784 265.745C281.016 265.627 278.048 265.5 275 265.5C271.952 265.5 268.984 265.627 266.216 265.745C265.068 265.794 263.954 265.842 262.882 265.878C259.175 266.004 255.976 265.998 253.342 265.529C250.727 265.064 248.844 264.173 247.587 262.67C246.325 261.161 245.5 258.805 245.5 255C245.5 239.905 258.612 227.5 275 227.5C291.388 227.5 304.5 239.905 304.5 255Z" fill="#F7F6CF" stroke="white" stroke-width="3"/>
<rect x="268.84" y="291.565" width="13.2709" height="14.9582" fill="#F4CFDF" stroke="white" stroke-width="3"/>
<path d="M243.182 332.524C243.182 314.862 257.5 300.544 275.162 300.544C292.825 300.544 307.143 314.862 307.143 332.524V341.093C307.143 358.756 292.825 373.074 275.162 373.074C257.5 373.074 243.182 358.756 243.182 341.093V332.524Z" fill="#5784BA" stroke="white" stroke-width="3"/>
<path d="M302.136 259.519C302.136 276.311 290.042 289.621 275.475 289.621C260.909 289.621 248.814 276.311 248.814 259.519C248.814 255.326 249.572 252.333 250.825 250.17C252.064 248.031 253.855 246.584 256.156 245.592C258.489 244.586 261.339 244.051 264.637 243.778C267.933 243.505 271.573 243.5 275.475 243.5C279.377 243.5 283.017 243.505 286.313 243.778C289.612 244.051 292.461 244.586 294.794 245.592C297.096 246.584 298.887 248.031 300.125 250.17C301.378 252.333 302.136 255.326 302.136 259.519Z" fill="#F4CFDF" stroke="white" stroke-width="3"/>
<rect x="1.30877" y="1.62105" width="25.1169" height="77.99" rx="12.5584" transform="matrix(0.996088 0.0883617 -0.123576 0.992335 243.214 298.976)" fill="#5784BA" stroke="white" stroke-width="3"/>
<rect x="1.6795" y="1.35596" width="25.1169" height="77.99" rx="12.5584" transform="matrix(0.996088 -0.0883617 0.123576 0.992335 278.443 301.687)" fill="#5784BA" stroke="white" stroke-width="3"/>
<path d="M225.5 267.808C225.5 274.032 224.366 278.283 222.477 281.216C220.612 284.114 217.905 285.89 214.403 286.969C210.86 288.06 206.565 288.418 201.633 288.487C198.873 288.525 196.023 288.475 193.038 288.422C190.623 288.38 188.118 288.336 185.5 288.336C182.882 288.336 180.377 288.38 177.962 288.422C174.977 288.475 172.127 288.525 169.367 288.487C164.435 288.418 160.14 288.06 156.597 286.969C153.095 285.89 150.388 284.114 148.523 281.216C146.634 278.283 145.5 274.032 145.5 267.808C145.5 242.908 163.579 222.5 185.5 222.5C207.421 222.5 225.5 242.908 225.5 267.808Z" fill="#F7F6CF" stroke="white" stroke-width="3"/>
<rect x="178.84" y="291.565" width="13.2709" height="14.9582" fill="#F4CFDF" stroke="white" stroke-width="3"/>
<path d="M153.182 332.524C153.182 314.862 167.5 300.544 185.162 300.544C202.825 300.544 217.143 314.862 217.143 332.524V341.093C217.143 358.756 202.825 373.074 185.162 373.074C167.5 373.074 153.182 358.756 153.182 341.093V332.524Z" fill="#5784BA" stroke="white" stroke-width="3"/>
<path d="M212.136 259.519C212.136 276.311 200.042 289.621 185.475 289.621C170.909 289.621 158.814 276.311 158.814 259.519C158.814 255.326 159.572 252.333 160.825 250.17C162.064 248.031 163.855 246.584 166.156 245.592C168.489 244.586 171.339 244.051 174.637 243.778C177.933 243.505 181.573 243.5 185.475 243.5C189.377 243.5 193.017 243.505 196.313 243.778C199.612 244.051 202.461 244.586 204.794 245.592C207.096 246.584 208.887 248.031 210.125 250.17C211.378 252.333 212.136 255.326 212.136 259.519Z" fill="#F4CFDF" stroke="white" stroke-width="3"/>
<rect x="1.30877" y="1.62105" width="25.1169" height="77.99" rx="12.5584" transform="matrix(0.996088 0.0883617 -0.123576 0.992335 153.214 298.976)" fill="#5784BA" stroke="white" stroke-width="3"/>
<rect x="1.6795" y="1.35596" width="25.1169" height="77.99" rx="12.5584" transform="matrix(0.996088 -0.0883617 0.123576 0.992335 188.443 301.687)" fill="#5784BA" stroke="white" stroke-width="3"/>
</svg>
