<svg width="450" height="450" viewBox="0 0 450 450" fill="none" xmlns="http://www.w3.org/2000/svg">
<circle cx="225" cy="225" r="223.5" fill="#B6D8F2" stroke="white" stroke-width="3"/>
<rect x="92.3732" y="194.5" width="23" height="31" fill="#F4CFDF" stroke="white" stroke-width="3"/>
<path d="M51.3732 250C51.3732 228.737 68.6102 211.5 89.8732 211.5H116.873C138.136 211.5 155.373 228.737 155.373 250V313C155.373 334.263 138.136 351.5 116.873 351.5H89.8732C68.6102 351.5 51.3732 334.263 51.3732 313V250Z" fill="#5784BA" stroke="white" stroke-width="3"/>
<path d="M147.373 135.168C147.373 151.396 142.424 166.03 134.494 176.574C126.565 187.117 115.723 193.5 103.873 193.5C92.0229 193.5 81.1817 187.117 73.2522 176.574C65.3221 166.03 60.3732 151.396 60.3732 135.168C60.3732 127.045 61.6133 121.089 63.7571 116.704C65.8845 112.351 68.9384 109.469 72.7359 107.528C76.5696 105.569 81.2068 104.548 86.5035 104.028C91.8008 103.509 97.6439 103.5 103.873 103.5C110.102 103.5 115.945 103.509 121.243 104.028C126.54 104.548 131.177 105.569 135.01 107.528C138.808 109.469 141.862 112.351 143.989 116.704C146.133 121.089 147.373 127.045 147.373 135.168Z" fill="#F4CFDF" stroke="white" stroke-width="3"/>
<rect x="53.3278" y="211.716" width="42" height="150" rx="21" transform="rotate(6 53.3278 211.716)" fill="#5784BA" stroke="white" stroke-width="3"/>
<rect x="110.522" y="216.039" width="42" height="150" rx="21" transform="rotate(-6 110.522 216.039)" fill="#5784BA" stroke="white" stroke-width="3"/>
<path d="M60.3733 129.628C60.4389 108.73 79.7092 91.5 103.873 91.5C124.23 91.5 141.113 103.728 145.968 120.076C145.542 119.127 145.076 118.176 144.563 117.242C141.653 111.933 137.103 106.859 130.079 105.962C123.338 105.101 114.831 108.16 104.004 117.431C95.5715 108.213 88.2604 105.087 81.9106 105.964C75.3926 106.864 70.5392 111.91 67.0377 117.127C64.2672 121.255 62.1682 125.769 60.7006 128.925C60.5878 129.168 60.4787 129.403 60.3733 129.628Z" fill="#F7F6CF" stroke="white" stroke-width="3"/>
<rect x="340.373" y="191.5" width="23" height="31" fill="#F4CFDF" stroke="white" stroke-width="3"/>
<path d="M299.373 247C299.373 225.737 316.61 208.5 337.873 208.5H364.873C386.136 208.5 403.373 225.737 403.373 247V310C403.373 331.263 386.136 348.5 364.873 348.5H337.873C316.61 348.5 299.373 331.263 299.373 310V247Z" fill="#5784BA" stroke="white" stroke-width="3"/>
<path d="M395.373 132.168C395.373 148.396 390.424 163.03 382.494 173.574C374.565 184.117 363.723 190.5 351.873 190.5C340.023 190.5 329.182 184.117 321.252 173.574C313.322 163.03 308.373 148.396 308.373 132.168C308.373 124.045 309.613 118.089 311.757 113.704C313.884 109.351 316.938 106.469 320.736 104.528C324.57 102.569 329.207 101.548 334.504 101.028C339.801 100.509 345.644 100.5 351.873 100.5C358.102 100.5 363.945 100.509 369.243 101.028C374.54 101.548 379.177 102.569 383.01 104.528C386.808 106.469 389.862 109.351 391.989 113.704C394.133 118.089 395.373 124.045 395.373 132.168Z" fill="#F4CFDF" stroke="white" stroke-width="3"/>
<rect x="301.328" y="208.716" width="42" height="150" rx="21" transform="rotate(6 301.328 208.716)" fill="#5784BA" stroke="white" stroke-width="3"/>
<rect x="358.522" y="213.039" width="42" height="150" rx="21" transform="rotate(-6 358.522 213.039)" fill="#5784BA" stroke="white" stroke-width="3"/>
<path d="M308.373 126.628C308.439 105.73 327.709 88.5 351.873 88.5C372.23 88.5 389.113 100.728 393.968 117.076C393.542 116.127 393.076 115.176 392.563 114.242C389.653 108.933 385.103 103.859 378.079 102.962C371.338 102.101 362.831 105.16 352.004 114.431C343.572 105.213 336.26 102.087 329.911 102.964C323.393 103.864 318.539 108.91 315.038 114.127C312.267 118.255 310.168 122.769 308.701 125.925C308.588 126.168 308.479 126.403 308.373 126.628Z" fill="#F7F6CF" stroke="white" stroke-width="3"/>
<path d="M304.5 255C304.5 258.805 303.675 261.161 302.413 262.67C301.156 264.173 299.273 265.064 296.658 265.529C294.024 265.998 290.825 266.004 287.118 265.878C286.046 265.842 284.932 265.794 283.784 265.745C281.016 265.627 278.048 265.5 275 265.5C271.952 265.5 268.984 265.627 266.216 265.745C265.068 265.794 263.954 265.842 262.882 265.878C259.175 266.004 255.976 265.998 253.342 265.529C250.727 265.064 248.844 264.173 247.587 262.67C246.325 261.161 245.5 258.805 245.5 255C245.5 239.905 258.612 227.5 275 227.5C291.388 227.5 304.5 239.905 304.5 255Z" fill="#F7F6CF" stroke="white" stroke-width="3"/>
<rect x="268.84" y="291.565" width="13.2709" height="14.9582" fill="#F4CFDF" stroke="white" stroke-width="3"/>
<path d="M243.182 332.524C243.182 314.862 257.5 300.544 275.162 300.544C292.825 300.544 307.143 314.862 307.143 332.524V341.093C307.143 358.756 292.825 373.074 275.162 373.074C257.5 373.074 243.182 358.756 243.182 341.093V332.524Z" fill="#5784BA" stroke="white" stroke-width="3"/>
<path d="M302.136 259.519C302.136 276.311 290.042 289.621 275.475 289.621C260.909 289.621 248.814 276.311 248.814 259.519C248.814 255.326 249.572 252.333 250.825 250.17C252.064 248.031 253.855 246.584 256.156 245.592C258.489 244.586 261.339 244.051 264.637 243.778C267.933 243.505 271.573 243.5 275.475 243.5C279.377 243.5 283.017 243.505 286.313 243.778C289.612 244.051 292.461 244.586 294.794 245.592C297.096 246.584 298.887 248.031 300.125 250.17C301.378 252.333 302.136 255.326 302.136 259.519Z" fill="#F4CFDF" stroke="white" stroke-width="3"/>
<rect x="1.30877" y="1.62105" width="25.1169" height="77.99" rx="12.5584" transform="matrix(0.996088 0.0883617 -0.123576 0.992335 243.214 298.976)" fill="#5784BA" stroke="white" stroke-width="3"/>
<rect x="1.6795" y="1.35596" width="25.1169" height="77.99" rx="12.5584" transform="matrix(0.996088 -0.0883617 0.123576 0.992335 278.443 301.687)" fill="#5784BA" stroke="white" stroke-width="3"/>
<path d="M225.5 267.808C225.5 274.032 224.366 278.283 222.477 281.216C220.612 284.114 217.905 285.89 214.403 286.969C210.86 288.06 206.565 288.418 201.633 288.487C198.873 288.525 196.023 288.475 193.038 288.422C190.623 288.38 188.118 288.336 185.5 288.336C182.882 288.336 180.377 288.38 177.962 288.422C174.977 288.475 172.127 288.525 169.367 288.487C164.435 288.418 160.14 288.06 156.597 286.969C153.095 285.89 150.388 284.114 148.523 281.216C146.634 278.283 145.5 274.032 145.5 267.808C145.5 242.908 163.579 222.5 185.5 222.5C207.421 222.5 225.5 242.908 225.5 267.808Z" fill="#F7F6CF" stroke="white" stroke-width="3"/>
<rect x="178.84" y="291.565" width="13.2709" height="14.9582" fill="#F4CFDF" stroke="white" stroke-width="3"/>
<path d="M153.182 332.524C153.182 314.862 167.5 300.544 185.162 300.544C202.825 300.544 217.143 314.862 217.143 332.524V341.093C217.143 358.756 202.825 373.074 185.162 373.074C167.5 373.074 153.182 358.756 153.182 341.093V332.524Z" fill="#5784BA" stroke="white" stroke-width="3"/>
<path d="M212.136 259.519C212.136 276.311 200.042 289.621 185.475 289.621C170.909 289.621 158.814 276.311 158.814 259.519C158.814 255.326 159.572 252.333 160.825 250.17C162.064 248.031 163.855 246.584 166.156 245.592C168.489 244.586 171.339 244.051 174.637 243.778C177.933 243.505 181.573 243.5 185.475 243.5C189.377 243.5 193.017 243.505 196.313 243.778C199.612 244.051 202.461 244.586 204.794 245.592C207.096 246.584 208.887 248.031 210.125 250.17C211.378 252.333 212.136 255.326 212.136 259.519Z" fill="#F4CFDF" stroke="white" stroke-width="3"/>
<rect x="1.30877" y="1.62105" width="25.1169" height="77.99" rx="12.5584" transform="matrix(0.996088 0.0883617 -0.123576 0.992335 153.214 298.976)" fill="#5784BA" stroke="white" stroke-width="3"/>
<rect x="1.6795" y="1.35596" width="25.1169" height="77.99" rx="12.5584" transform="matrix(0.996088 -0.0883617 0.123576 0.992335 188.443 301.687)" fill="#5784BA" stroke="white" stroke-width="3"/>
</svg>
