<svg width="450" height="450" viewBox="0 0 450 450" fill="none" xmlns="http://www.w3.org/2000/svg">
<circle cx="225" cy="225" r="223.5" fill="#B6D8F2" stroke="white" stroke-width="3"/>
<rect x="91.7714" y="194.5" width="22.8278" height="31" fill="#F4CFDF" stroke="white" stroke-width="3"/>
<path d="M89.5429 211.5H115.834C137.097 211.5 154.334 228.737 154.334 250V313C154.334 334.263 137.097 351.5 115.834 351.5H89.5429C68.28 351.5 51.0429 334.263 51.0429 313V250C51.0429 228.737 68.2799 211.5 89.5429 211.5Z" fill="#5784BA" stroke="white" stroke-width="3"/>
<path d="M146.387 135.168C146.387 151.398 141.47 166.034 133.593 176.578C125.715 187.121 114.949 193.5 103.185 193.5C91.4216 193.5 80.6553 187.121 72.7779 176.578C64.9003 166.034 59.9833 151.398 59.9833 135.168C59.9833 127.044 61.2154 121.087 63.3455 116.7C65.4592 112.347 68.4927 109.465 72.2624 107.526C76.0682 105.568 80.6723 104.547 85.9326 104.028C91.1937 103.509 96.9971 103.5 103.185 103.5C109.374 103.5 115.177 103.509 120.438 104.028C125.698 104.547 130.302 105.568 134.108 107.526C137.878 109.465 140.911 112.347 143.025 116.7C145.155 121.087 146.387 127.044 146.387 135.168Z" fill="#F4CFDF" stroke="white" stroke-width="3"/>
<rect x="1.33591" y="1.64972" width="41.7052" height="149.989" rx="20.8526" transform="matrix(0.994449 0.105218 -0.103844 0.994594 51.8273 209.935)" fill="#5784BA" stroke="white" stroke-width="3"/>
<rect x="1.64744" y="1.33406" width="41.7052" height="149.989" rx="20.8526" transform="matrix(0.994449 -0.105218 0.103844 0.994594 108.023 214.884)" fill="#5784BA" stroke="white" stroke-width="3"/>
<path d="M59.9836 129.587C60.0737 108.698 79.2112 91.5 103.185 91.5C123.346 91.5 140.086 103.662 144.955 119.954C144.548 119.046 144.103 118.138 143.617 117.245C140.727 111.939 136.206 106.86 129.22 105.962C122.518 105.1 114.066 108.161 103.316 117.425C94.9445 108.215 87.6805 105.086 81.3654 105.964C74.883 106.865 70.06 111.916 66.583 117.131C63.8309 121.258 61.7459 125.772 60.2881 128.929C60.1833 129.155 60.0819 129.375 59.9836 129.587Z" fill="#F7F6CF" stroke="white" stroke-width="3"/>
<path d="M406.778 154C406.778 165.468 405.015 173.487 401.964 179.106C398.941 184.672 394.594 187.997 389.143 189.988C383.633 192 376.989 192.649 369.424 192.774C365.197 192.844 360.811 192.753 356.225 192.657C352.523 192.58 348.689 192.5 344.702 192.5C340.715 192.5 336.882 192.58 333.179 192.657C328.593 192.753 324.207 192.844 319.98 192.774C312.415 192.649 305.771 192 300.261 189.988C294.81 187.997 290.463 184.672 287.44 179.106C284.389 173.487 282.626 165.468 282.626 154C282.626 131.099 289.654 110.17 300.95 94.9989C312.247 79.8268 327.733 70.5 344.702 70.5C361.671 70.5 377.157 79.8268 388.454 94.9989C399.75 110.17 406.778 131.099 406.778 154Z" fill="#F7F6CF" stroke="white" stroke-width="3"/>
<rect x="334.155" y="195.5" width="22.8278" height="31" fill="#F4CFDF" stroke="white" stroke-width="3"/>
<path d="M331.927 212.5H358.218C379.481 212.5 396.718 229.737 396.718 251V314C396.718 335.263 379.481 352.5 358.218 352.5H331.927C310.664 352.5 293.427 335.263 293.427 314V251C293.427 229.737 310.664 212.5 331.927 212.5Z" fill="#5784BA" stroke="white" stroke-width="3"/>
<path d="M388.771 136.168C388.771 152.398 383.854 167.034 375.977 177.578C368.099 188.121 357.333 194.5 345.569 194.5C333.806 194.5 323.039 188.121 315.162 177.578C307.284 167.034 302.367 152.398 302.367 136.168C302.367 128.044 303.6 122.087 305.73 117.7C307.843 113.347 310.877 110.465 314.646 108.526C318.452 106.568 323.056 105.548 328.317 105.028C333.578 104.509 339.381 104.5 345.569 104.5C351.758 104.5 357.561 104.509 362.822 105.028C368.082 105.548 372.686 106.568 376.492 108.526C380.262 110.465 383.295 113.347 385.409 117.7C387.539 122.087 388.771 128.044 388.771 136.168Z" fill="#F4CFDF" stroke="white" stroke-width="3"/>
<rect x="1.33591" y="1.64972" width="41.7052" height="149.989" rx="20.8526" transform="matrix(0.994449 0.105218 -0.103844 0.994594 294.211 210.935)" fill="#5784BA" stroke="white" stroke-width="3"/>
<rect x="1.64744" y="1.33406" width="41.7052" height="149.989" rx="20.8526" transform="matrix(0.994449 -0.105218 0.103844 0.994594 350.407 215.884)" fill="#5784BA" stroke="white" stroke-width="3"/>
<path d="M302.473 255C302.473 258.807 301.653 261.165 300.4 262.673C299.152 264.175 297.285 265.065 294.69 265.53C292.076 265.998 288.9 266.004 285.217 265.878C284.153 265.842 283.047 265.794 281.906 265.745C279.156 265.627 276.207 265.5 273.179 265.5C270.15 265.5 267.202 265.627 264.451 265.745C263.311 265.794 262.205 265.842 261.141 265.878C257.458 266.004 254.282 265.998 251.668 265.53C249.073 265.065 247.206 264.175 245.958 262.673C244.705 261.165 243.884 258.807 243.884 255C243.884 239.896 256.914 227.5 273.179 227.5C289.444 227.5 302.473 239.896 302.473 255Z" fill="#F7F6CF" stroke="white" stroke-width="3"/>
<rect x="267.069" y="291.565" width="13.1631" height="14.9582" fill="#F4CFDF" stroke="white" stroke-width="3"/>
<path d="M305.099 332.302V341.315C305.099 358.855 290.88 373.074 273.34 373.074C255.8 373.074 241.581 358.855 241.581 341.315V332.302C241.581 314.763 255.8 300.544 273.34 300.544C290.88 300.544 305.099 314.763 305.099 332.302Z" fill="#5784BA" stroke="white" stroke-width="3"/>
<path d="M300.126 259.519C300.126 276.321 288.106 289.621 273.651 289.621C259.196 289.621 247.176 276.321 247.176 259.519C247.176 255.325 247.93 252.33 249.175 250.166C250.406 248.027 252.184 246.582 254.467 245.59C256.782 244.585 259.611 244.051 262.886 243.778C266.16 243.505 269.775 243.5 273.651 243.5C277.527 243.5 281.142 243.505 284.415 243.778C287.691 244.051 290.52 244.585 292.835 245.59C295.118 246.582 296.896 248.027 298.127 250.166C299.372 252.33 300.126 255.325 300.126 259.519Z" fill="#F4CFDF" stroke="white" stroke-width="3"/>
<rect x="1.3099" y="1.62207" width="24.9321" height="77.9818" rx="12.4661" transform="matrix(0.996036 0.0889461 -0.12277 0.992435 241.603 298.975)" fill="#5784BA" stroke="white" stroke-width="3"/>
<rect x="1.67821" y="1.35523" width="24.9321" height="77.9818" rx="12.4661" transform="matrix(0.996036 -0.0889462 0.12277 0.992435 276.599 301.688)" fill="#5784BA" stroke="white" stroke-width="3"/>
<path d="M223.997 267.808C223.997 274.033 222.869 278.286 220.993 281.22C219.14 284.118 216.453 285.892 212.978 286.97C209.461 288.06 205.196 288.418 200.297 288.487C197.555 288.525 194.726 288.475 191.761 288.422C189.362 288.38 186.874 288.336 184.272 288.336C181.669 288.336 179.182 288.38 176.782 288.422C173.817 288.475 170.988 288.525 168.246 288.487C163.347 288.418 159.082 288.06 155.565 286.97C152.09 285.892 149.403 284.118 147.55 281.22C145.674 278.286 144.546 274.033 144.546 267.808C144.546 242.898 162.511 222.5 184.272 222.5C206.032 222.5 223.997 242.898 223.997 267.808Z" fill="#F7F6CF" stroke="white" stroke-width="3"/>
<rect x="177.665" y="291.565" width="13.1631" height="14.9582" fill="#F4CFDF" stroke="white" stroke-width="3"/>
<path d="M215.695 332.302V341.315C215.695 358.855 201.476 373.074 183.936 373.074C166.396 373.074 152.177 358.855 152.177 341.315V332.302C152.177 314.763 166.396 300.544 183.936 300.544C201.476 300.544 215.695 314.763 215.695 332.302Z" fill="#5784BA" stroke="white" stroke-width="3"/>
<path d="M210.722 259.519C210.722 276.321 198.702 289.621 184.247 289.621C169.792 289.621 157.772 276.321 157.772 259.519C157.772 255.325 158.526 252.33 159.771 250.166C161.002 248.027 162.78 246.582 165.063 245.59C167.378 244.585 170.207 244.051 173.482 243.778C176.756 243.505 180.371 243.5 184.247 243.5C188.123 243.5 191.738 243.505 195.011 243.778C198.287 244.051 201.116 244.585 203.431 245.59C205.714 246.582 207.492 248.027 208.723 250.166C209.968 252.33 210.722 255.325 210.722 259.519Z" fill="#F4CFDF" stroke="white" stroke-width="3"/>
<rect x="1.3099" y="1.62207" width="24.9321" height="77.9818" rx="12.4661" transform="matrix(0.996036 0.0889461 -0.12277 0.992435 152.199 298.975)" fill="#5784BA" stroke="white" stroke-width="3"/>
<rect x="1.67821" y="1.35523" width="24.9321" height="77.9818" rx="12.4661" transform="matrix(0.996036 -0.0889462 0.122769 0.992435 187.195 301.688)" fill="#5784BA" stroke="white" stroke-width="3"/>
</svg>
